<?xml version="1.0" standalone="no"?>
<!DOCTYPE svg PUBLIC "-//W3C//DTD SVG 20010904//EN"
 "http://www.w3.org/TR/2001/REC-SVG-20010904/DTD/svg10.dtd">
<svg version="1.0" xmlns="http://www.w3.org/2000/svg"
 width="814.000000pt" height="814.000000pt" viewBox="0 0 814.000000 814.000000"
 preserveAspectRatio="xMidYMid meet">
<metadata>
Created by potrace 1.14, written by Peter Selinger 2001-2017
</metadata>
<g transform="translate(0.000000,814.000000) scale(0.100000,-0.100000)"
fill="#000000" stroke="none">
<path d="M3760 8129 c-262 -23 -456 -55 -690 -114 -615 -153 -1205 -465 -1695
-894 -82 -72 -333 -329 -406 -416 -470 -559 -781 -1218 -903 -1915 -50 -285
-61 -429 -60 -755 1 -281 13 -413 70 -750 25 -155 145 -564 204 -700 5 -11 28
-65 51 -120 188 -450 489 -894 854 -1261 166 -167 237 -229 425 -377 31 -25
148 -107 235 -164 429 -285 991 -510 1492 -597 266 -47 426 -60 708 -61 278 0
386 6 566 30 889 122 1684 513 2318 1138 463 458 797 994 1006 1612 69 205
150 551 170 730 3 28 11 91 17 140 17 125 17 699 0 840 -115 980 -526 1821
-1219 2497 -108 105 -218 202 -303 268 -25 19 -52 40 -60 47 -112 88 -321 226
-480 315 -379 214 -786 362 -1230 447 -121 23 -141 26 -310 47 -140 18 -621
26 -760 13z"/>
</g>
</svg>
